<?xml version="1.0" encoding="UTF-8" standalone="no"?>
<!DOCTYPE svg PUBLIC "-//W3C//DTD SVG 1.1//EN"
 "http://www.w3.org/Graphics/SVG/1.1/DTD/svg11.dtd">
<!-- Generated by graphviz version 14.1.1 (20251213.1925)
 -->
<!-- Title: InheritanceTree Pages: 1 -->
<svg width="375pt" height="573pt"
 viewBox="0.00 0.00 375.00 573.00" xmlns="http://www.w3.org/2000/svg" xmlns:xlink="http://www.w3.org/1999/xlink">
<g id="graph0" class="graph" transform="scale(1 1) rotate(0) translate(4 568.5)">
<title>InheritanceTree</title>
<polygon fill="white" stroke="none" points="-4,4 -4,-568.5 371.25,-568.5 371.25,4 -4,4"/>
<text xml:space="preserve" text-anchor="middle" x="183.62" y="-7.2" font-family="Times New Roman,serif" font-size="14.00">simple_persist &#45; Inheritance Hierarchy</text>
<!-- SIMPLE_PERSIST -->
<g id="node1" class="node">
<title>SIMPLE_PERSIST</title>
<path fill="none" stroke="black" d="M125.88,-60.5C125.88,-60.5 25.88,-60.5 25.88,-60.5 19.88,-60.5 13.88,-54.5 13.88,-48.5 13.88,-48.5 13.88,-36.5 13.88,-36.5 13.88,-30.5 19.88,-24.5 25.88,-24.5 25.88,-24.5 125.88,-24.5 125.88,-24.5 131.88,-24.5 137.88,-30.5 137.88,-36.5 137.88,-36.5 137.88,-48.5 137.88,-48.5 137.88,-54.5 131.88,-60.5 125.88,-60.5"/>
<text xml:space="preserve" text-anchor="middle" x="75.88" y="-37.45" font-family="Times New Roman,serif" font-size="14.00">SIMPLE_PERSIST</text>
</g>
<!-- SP_ARRAYED_CHAIN -->
<g id="node2" class="node">
<title>SP_ARRAYED_CHAIN</title>
<path fill="none" stroke="black" d="M139.75,-132.5C139.75,-132.5 12,-132.5 12,-132.5 6,-132.5 0,-126.5 0,-120.5 0,-120.5 0,-108.5 0,-108.5 0,-102.5 6,-96.5 12,-96.5 12,-96.5 139.75,-96.5 139.75,-96.5 145.75,-96.5 151.75,-102.5 151.75,-108.5 151.75,-108.5 151.75,-120.5 151.75,-120.5 151.75,-126.5 145.75,-132.5 139.75,-132.5"/>
<text xml:space="preserve" text-anchor="middle" x="75.88" y="-109.45" font-family="Times New Roman,serif" font-size="14.00">SP_ARRAYED_CHAIN</text>
</g>
<!-- SP_CHAIN -->
<g id="node3" class="node">
<title>SP_CHAIN</title>
<path fill="none" stroke="black" d="M341.75,-132.5C341.75,-132.5 285.25,-132.5 285.25,-132.5 279.25,-132.5 273.25,-126.5 273.25,-120.5 273.25,-120.5 273.25,-108.5 273.25,-108.5 273.25,-102.5 279.25,-96.5 285.25,-96.5 285.25,-96.5 341.75,-96.5 341.75,-96.5 347.75,-96.5 353.75,-102.5 353.75,-108.5 353.75,-108.5 353.75,-120.5 353.75,-120.5 353.75,-126.5 347.75,-132.5 341.75,-132.5"/>
<text xml:space="preserve" text-anchor="middle" x="313.5" y="-109.45" font-family="Times New Roman,serif" font-size="14.00">SP_CHAIN</text>
</g>
<!-- SP_ARRAYED_CHAIN&#45;&gt;SP_CHAIN -->
<g id="edge1" class="edge">
<title>SP_ARRAYED_CHAIN&#45;&gt;SP_CHAIN</title>
<path fill="none" stroke="black" d="M152.04,-114.5C152.04,-114.5 261.48,-114.5 261.48,-114.5"/>
<polygon fill="none" stroke="black" points="261.48,-118 271.48,-114.5 261.48,-111 261.48,-118"/>
</g>
<!-- SP_HASH_INDEX -->
<g id="node4" class="node">
<title>SP_HASH_INDEX</title>
<path fill="none" stroke="black" d="M125.5,-204.5C125.5,-204.5 26.25,-204.5 26.25,-204.5 20.25,-204.5 14.25,-198.5 14.25,-192.5 14.25,-192.5 14.25,-180.5 14.25,-180.5 14.25,-174.5 20.25,-168.5 26.25,-168.5 26.25,-168.5 125.5,-168.5 125.5,-168.5 131.5,-168.5 137.5,-174.5 137.5,-180.5 137.5,-180.5 137.5,-192.5 137.5,-192.5 137.5,-198.5 131.5,-204.5 125.5,-204.5"/>
<text xml:space="preserve" text-anchor="middle" x="75.88" y="-181.45" font-family="Times New Roman,serif" font-size="14.00">SP_HASH_INDEX</text>
</g>
<!-- SP_INDEX -->
<g id="node5" class="node">
<title>SP_INDEX</title>
<path fill="none" stroke="black" d="M341.38,-204.5C341.38,-204.5 285.62,-204.5 285.62,-204.5 279.62,-204.5 273.62,-198.5 273.62,-192.5 273.62,-192.5 273.62,-180.5 273.62,-180.5 273.62,-174.5 279.62,-168.5 285.62,-168.5 285.62,-168.5 341.38,-168.5 341.38,-168.5 347.38,-168.5 353.38,-174.5 353.38,-180.5 353.38,-180.5 353.38,-192.5 353.38,-192.5 353.38,-198.5 347.38,-204.5 341.38,-204.5"/>
<text xml:space="preserve" text-anchor="middle" x="313.5" y="-181.45" font-family="Times New Roman,serif" font-size="14.00">SP_INDEX</text>
</g>
<!-- SP_HASH_INDEX&#45;&gt;SP_INDEX -->
<g id="edge2" class="edge">
<title>SP_HASH_INDEX&#45;&gt;SP_INDEX</title>
<path fill="none" stroke="black" d="M138,-186.5C138,-186.5 261.85,-186.5 261.85,-186.5"/>
<polygon fill="none" stroke="black" points="261.85,-190 271.85,-186.5 261.85,-183 261.85,-190"/>
</g>
<!-- SP_QUERY -->
<g id="node6" class="node">
<title>SP_QUERY</title>
<path fill="none" stroke="black" d="M105.62,-276.5C105.62,-276.5 46.12,-276.5 46.12,-276.5 40.12,-276.5 34.12,-270.5 34.12,-264.5 34.12,-264.5 34.12,-252.5 34.12,-252.5 34.12,-246.5 40.12,-240.5 46.12,-240.5 46.12,-240.5 105.62,-240.5 105.62,-240.5 111.62,-240.5 117.62,-246.5 117.62,-252.5 117.62,-252.5 117.62,-264.5 117.62,-264.5 117.62,-270.5 111.62,-276.5 105.62,-276.5"/>
<text xml:space="preserve" text-anchor="middle" x="75.88" y="-253.45" font-family="Times New Roman,serif" font-size="14.00">SP_QUERY</text>
</g>
<!-- SP_READER -->
<g id="node7" class="node">
<title>SP_READER</title>
<path fill="none" stroke="black" d="M109.75,-348.5C109.75,-348.5 42,-348.5 42,-348.5 36,-348.5 30,-342.5 30,-336.5 30,-336.5 30,-324.5 30,-324.5 30,-318.5 36,-312.5 42,-312.5 42,-312.5 109.75,-312.5 109.75,-312.5 115.75,-312.5 121.75,-318.5 121.75,-324.5 121.75,-324.5 121.75,-336.5 121.75,-336.5 121.75,-342.5 115.75,-348.5 109.75,-348.5"/>
<text xml:space="preserve" text-anchor="middle" x="75.88" y="-325.45" font-family="Times New Roman,serif" font-size="14.00">SP_READER</text>
</g>
<!-- SP_STORABLE -->
<g id="node8" class="node">
<title>SP_STORABLE</title>
<path fill="none" stroke="black" d="M355.25,-420.5C355.25,-420.5 271.75,-420.5 271.75,-420.5 265.75,-420.5 259.75,-414.5 259.75,-408.5 259.75,-408.5 259.75,-396.5 259.75,-396.5 259.75,-390.5 265.75,-384.5 271.75,-384.5 271.75,-384.5 355.25,-384.5 355.25,-384.5 361.25,-384.5 367.25,-390.5 367.25,-396.5 367.25,-396.5 367.25,-408.5 367.25,-408.5 367.25,-414.5 361.25,-420.5 355.25,-420.5"/>
<text xml:space="preserve" text-anchor="middle" x="313.5" y="-397.45" font-family="Times New Roman,serif" font-size="14.00">SP_STORABLE</text>
</g>
<!-- SP_WRITER -->
<g id="node9" class="node">
<title>SP_WRITER</title>
<path fill="none" stroke="black" d="M109,-492.5C109,-492.5 42.75,-492.5 42.75,-492.5 36.75,-492.5 30.75,-486.5 30.75,-480.5 30.75,-480.5 30.75,-468.5 30.75,-468.5 30.75,-462.5 36.75,-456.5 42.75,-456.5 42.75,-456.5 109,-456.5 109,-456.5 115,-456.5 121,-462.5 121,-468.5 121,-468.5 121,-480.5 121,-480.5 121,-486.5 115,-492.5 109,-492.5"/>
<text xml:space="preserve" text-anchor="middle" x="75.88" y="-469.45" font-family="Times New Roman,serif" font-size="14.00">SP_WRITER</text>
</g>
<!-- SP_TEST_APP -->
<g id="node10" class="node">
<title>SP_TEST_APP</title>
<path fill="none" stroke="black" d="M114.62,-564.5C114.62,-564.5 37.12,-564.5 37.12,-564.5 31.12,-564.5 25.12,-558.5 25.12,-552.5 25.12,-552.5 25.12,-540.5 25.12,-540.5 25.12,-534.5 31.12,-528.5 37.12,-528.5 37.12,-528.5 114.62,-528.5 114.62,-528.5 120.62,-528.5 126.62,-534.5 126.62,-540.5 126.62,-540.5 126.62,-552.5 126.62,-552.5 126.62,-558.5 120.62,-564.5 114.62,-564.5"/>
<text xml:space="preserve" text-anchor="middle" x="75.88" y="-541.45" font-family="Times New Roman,serif" font-size="14.00">SP_TEST_APP</text>
</g>
<!-- SP_TEST_ITEM -->
<g id="node11" class="node">
<title>SP_TEST_ITEM</title>
<path fill="none" stroke="black" d="M119.12,-420.5C119.12,-420.5 32.62,-420.5 32.62,-420.5 26.62,-420.5 20.62,-414.5 20.62,-408.5 20.62,-408.5 20.62,-396.5 20.62,-396.5 20.62,-390.5 26.62,-384.5 32.62,-384.5 32.62,-384.5 119.12,-384.5 119.12,-384.5 125.12,-384.5 131.12,-390.5 131.12,-396.5 131.12,-396.5 131.12,-408.5 131.12,-408.5 131.12,-414.5 125.12,-420.5 119.12,-420.5"/>
<text xml:space="preserve" text-anchor="middle" x="75.88" y="-397.45" font-family="Times New Roman,serif" font-size="14.00">SP_TEST_ITEM</text>
</g>
<!-- SP_TEST_ITEM&#45;&gt;SP_STORABLE -->
<g id="edge3" class="edge">
<title>SP_TEST_ITEM&#45;&gt;SP_STORABLE</title>
<path fill="none" stroke="black" d="M131.59,-402.5C131.59,-402.5 247.85,-402.5 247.85,-402.5"/>
<polygon fill="none" stroke="black" points="247.85,-406 257.85,-402.5 247.85,-399 247.85,-406"/>
</g>
</g>
</svg>
