<?xml version="1.0" encoding="UTF-8" standalone="no"?>
<!DOCTYPE svg PUBLIC "-//W3C//DTD SVG 1.1//EN"
 "http://www.w3.org/Graphics/SVG/1.1/DTD/svg11.dtd">
<!-- Generated by graphviz version 14.1.1 (20251213.1925)
 -->
<!-- Title: Dependencies Pages: 1 -->
<svg width="333pt" height="213pt"
 viewBox="0.00 0.00 333.00 213.00" xmlns="http://www.w3.org/2000/svg" xmlns:xlink="http://www.w3.org/1999/xlink">
<g id="graph0" class="graph" transform="scale(1 1) rotate(0) translate(4 208.5)">
<title>Dependencies</title>
<polygon fill="white" stroke="none" points="-4,4 -4,-208.5 328.5,-208.5 328.5,4 -4,4"/>
<text xml:space="preserve" text-anchor="middle" x="162.25" y="-7.2" font-family="Times New Roman,serif" font-size="14.00">simple_persist &#45; Dependencies</text>
<!-- simple_persist -->
<g id="node1" class="node">
<title>simple_persist</title>
<polygon fill="lightblue" stroke="black" points="94.75,-132.5 0,-132.5 0,-96.5 94.75,-96.5 94.75,-132.5"/>
<text xml:space="preserve" text-anchor="middle" x="47.38" y="-109.45" font-family="Times New Roman,serif" font-size="14.00">simple_persist</text>
</g>
<!-- simple_mml -->
<g id="node2" class="node">
<title>simple_mml</title>
<polygon fill="lightblue" stroke="black" points="324.5,-204.5 238.75,-204.5 238.75,-168.5 324.5,-168.5 324.5,-204.5"/>
<text xml:space="preserve" text-anchor="middle" x="281.62" y="-181.45" font-family="Times New Roman,serif" font-size="14.00">simple_mml</text>
</g>
<!-- simple_persist&#45;&gt;simple_mml -->
<g id="edge1" class="edge">
<title>simple_persist&#45;&gt;simple_mml</title>
<path fill="none" stroke="black" stroke-dasharray="5,2" d="M95.07,-120.5C153.98,-120.5 246.5,-120.5 246.5,-120.5 246.5,-120.5 246.5,-156.6 246.5,-156.6"/>
<polygon fill="black" stroke="black" points="243,-156.6 246.5,-166.6 250,-156.6 243,-156.6"/>
</g>
<!-- base -->
<g id="node3" class="node">
<title>base</title>
<polygon fill="lightgray" stroke="black" points="308.62,-132.5 254.62,-132.5 254.62,-96.5 308.62,-96.5 308.62,-132.5"/>
<text xml:space="preserve" text-anchor="middle" x="281.62" y="-109.45" font-family="Times New Roman,serif" font-size="14.00">base</text>
</g>
<!-- simple_persist&#45;&gt;base -->
<g id="edge2" class="edge">
<title>simple_persist&#45;&gt;base</title>
<path fill="none" stroke="black" stroke-dasharray="5,2" d="M95.06,-108.5C95.06,-108.5 242.63,-108.5 242.63,-108.5"/>
<polygon fill="black" stroke="black" points="242.63,-112 252.63,-108.5 242.63,-105 242.63,-112"/>
</g>
<!-- time -->
<g id="node4" class="node">
<title>time</title>
<polygon fill="lightgray" stroke="black" points="308.62,-60.5 254.62,-60.5 254.62,-24.5 308.62,-24.5 308.62,-60.5"/>
<text xml:space="preserve" text-anchor="middle" x="281.62" y="-37.45" font-family="Times New Roman,serif" font-size="14.00">time</text>
</g>
<!-- simple_persist&#45;&gt;time -->
<g id="edge3" class="edge">
<title>simple_persist&#45;&gt;time</title>
<path fill="none" stroke="black" stroke-dasharray="5,2" d="M47.5,-96.33C47.5,-75 47.5,-42.5 47.5,-42.5 47.5,-42.5 242.8,-42.5 242.8,-42.5"/>
<polygon fill="black" stroke="black" points="242.8,-46 252.8,-42.5 242.8,-39 242.8,-46"/>
</g>
</g>
</svg>
